<?xml version="1.0" encoding="UTF-8"?>
<svg xmlns="http://www.w3.org/2000/svg" width="270" height="270">
  <g fill="none" fill-rule="evenodd">
    <path fill="#090909" d="M0 0h270v270H0z"></path>
    <path d="M286.726 417.994c-7.346-.049-15.454-.346-18.017-.662-2.563-.315-7.595-1.02-11.183-1.568s-9.947-1.858-14.13-2.912c-4.183-1.054-10.8-3.062-14.703-4.462-3.903-1.401-9.37-3.645-12.15-4.988-5.052-2.44-5.052-2.44-15.555-21.835-5.777-10.666-10.265-19.64-9.975-19.943.29-.302 2.724 1.19 5.407 3.316 2.683 2.127 7.954 5.954 11.713 8.505 3.758 2.55 10.748 6.65 15.532 9.11 4.784 2.46 11.354 5.498 14.6 6.75 3.247 1.251 8.366 3.014 11.376 3.917 3.01.904 8.178 2.221 11.483 2.93 3.306.707 9.23 1.617 13.166 2.022 4.33.445 11.572.58 18.339.342 7.666-.27 13.078-.814 17.209-1.729 3.314-.734 8.487-2.237 11.494-3.34 3.007-1.104 6.866-2.741 8.575-3.64 1.708-.897 4.784-2.812 6.834-4.254 2.05-1.443 5.23-4.094 7.064-5.891 1.836-1.797 4.558-5.045 6.049-7.216 1.491-2.171 3.55-5.811 4.574-8.089 1.024-2.277 2.496-6.69 3.27-9.806 1.125-4.52 1.41-7.42 1.41-14.347 0-6.878-.288-9.842-1.385-14.265-.762-3.071-2.61-8.273-4.106-11.561-1.497-3.288-4.17-8.211-5.94-10.94-1.77-2.73-5.296-7.54-7.836-10.69-2.54-3.151-7.492-8.572-11.004-12.047-3.512-3.475-10.3-9.569-15.084-13.542-4.784-3.972-12.752-10.272-17.707-14a10442.037 10442.037 0 0 0-19.26-14.445c-5.639-4.217-14.865-11.305-20.503-15.75-5.638-4.446-13.455-10.872-17.37-14.281-3.916-3.41-10.098-9.253-13.737-12.987-3.64-3.733-8.214-8.824-10.165-11.313-1.951-2.49-4.786-6.456-6.3-8.816-1.515-2.36-3.887-6.646-5.272-9.526-1.385-2.88-3.2-7.317-4.03-9.862-.833-2.544-1.923-6.874-2.424-9.623-.5-2.748-1.097-7.58-1.324-10.738-.235-3.256-.1-8.765.312-12.726.399-3.842 1.419-9.515 2.267-12.607.848-3.092 2.748-8.24 4.223-11.44 1.475-3.201 4.413-8.205 6.528-11.12 2.115-2.915 5.583-6.942 7.706-8.948 2.124-2.007 5.958-5.186 8.521-7.066 2.563-1.88 7.483-4.888 10.933-6.685 3.45-1.798 9.182-4.326 12.736-5.618 3.555-1.292 9.26-3.046 12.677-3.897 3.417-.85 9.708-2.155 13.98-2.897 4.27-.743 12.099-1.519 17.395-1.723 5.297-.205 13.265-.052 17.707.34 4.443.392 11.292 1.166 15.222 1.72 3.93.554 9.94 1.732 13.358 2.618 3.417.886 7.738 2.403 9.601 3.371 3.389 1.76 3.389 1.76 11.647 16.902 4.542 8.328 8.165 15.24 8.05 15.359-.115.119-4.517-2.04-9.783-4.8-5.266-2.758-12.51-6.139-16.098-7.512-3.588-1.373-9.631-3.318-13.429-4.323-3.798-1.004-9.845-2.28-13.438-2.835-3.989-.617-10.751-1.01-17.37-1.01-7.115 0-12.852.357-16.696 1.04-3.22.571-8.093 1.765-10.827 2.653-2.733.887-7.346 2.888-10.251 4.446-2.905 1.558-6.886 4.148-8.848 5.757-1.962 1.608-4.808 4.569-6.325 6.579-1.516 2.01-3.481 5.041-4.367 6.735-.886 1.694-2.164 5.33-2.84 8.08-.786 3.199-1.23 7.138-1.23 10.935 0 3.816.444 7.738 1.241 10.983.683 2.776 2.482 7.476 4 10.443 1.516 2.968 3.997 7.07 5.513 9.117 1.515 2.047 5.802 6.777 9.526 10.51 3.724 3.734 9.98 9.28 13.904 12.324 3.923 3.045 13.424 10.005 21.112 15.466a6618.968 6618.968 0 0 1 26.095 18.642c6.663 4.792 16.868 12.418 22.677 16.946 5.809 4.528 13.358 10.665 16.775 13.638 3.417 2.972 9.598 8.897 13.735 13.167 4.138 4.27 9.112 9.798 11.055 12.286 1.943 2.488 5.067 6.923 6.943 9.856 1.875 2.933 4.644 7.88 6.152 10.993 1.508 3.113 3.74 8.761 4.958 12.553 1.218 3.79 2.701 9.9 3.295 13.576.723 4.472 1.08 10.214 1.08 17.351 0 8.482-.287 12.164-1.402 17.973-.77 4.019-1.984 9.11-2.696 11.314-.712 2.204-2.247 6.156-3.411 8.781-1.164 2.626-3.691 7.236-5.615 10.246-1.925 3.009-5.77 7.871-8.545 10.804-2.776 2.934-7.143 6.948-9.706 8.921-2.563 1.973-7.152 5.066-10.199 6.872-3.046 1.806-7.66 4.208-10.251 5.337-2.592 1.129-7.09 2.9-9.994 3.937s-7.937 2.586-11.183 3.442c-3.246.856-8.139 1.994-10.873 2.528-2.733.534-8.605 1.411-13.047 1.95-5.144.624-12.927.948-21.435.892Z" fill="#1D1D1D"></path>
    <g fill="#D5B46A">
      <path d="M127.984 141.99c-3.238.018-5.91.01-5.936-.016-.027-.027-.049-7.647-.048-16.935 0-9.288.025-16.925.055-16.971.044-.07.918-.08 4.803-.057 4.414.026 4.806.037 5.558.16.445.073 1.085.193 1.423.268a14.162 14.162 0 0 1 2.66.89c.307.144.817.431 1.133.637.316.206.747.53.958.722.21.19.552.557.759.814.207.257.523.762.702 1.121.21.419.39.908.503 1.36.156.626.176.824.176 1.793 0 .97-.02 1.167-.176 1.794-.113.455-.29.932-.499 1.345a8.29 8.29 0 0 1-.651 1.07 8.11 8.11 0 0 1-.795.856 9.44 9.44 0 0 1-1.022.789c-.305.198-.778.476-1.05.617-.418.215-.497.281-.497.417 0 .149.044.174.565.314.312.084.813.238 1.114.342.3.104.832.314 1.181.467.349.153.903.436 1.232.628.329.193.838.528 1.132.745.293.217.767.624 1.052.903.285.28.705.76.934 1.065.228.307.562.834.74 1.172.18.339.428.92.554 1.293.126.372.28.973.342 1.335.075.43.114.997.114 1.633 0 .622-.04 1.204-.11 1.609-.06.348-.198.892-.306 1.209-.109.316-.315.804-.46 1.084-.143.28-.426.738-.63 1.018-.202.279-.649.774-.991 1.1-.343.325-.895.772-1.228.992-.332.22-.897.545-1.254.723a16.72 16.72 0 0 1-1.2.533c-.302.116-.841.296-1.197.401-.357.105-.954.253-1.327.33-.373.077-1.072.198-1.552.27-.811.119-1.295.13-6.761.16Zm-.874-32.076v30.175h2.41c1.326 0 2.673-.03 2.993-.064.32-.035.815-.109 1.1-.163.284-.054.75-.172 1.035-.262.285-.089.757-.273 1.05-.408a8.406 8.406 0 0 0 1.01-.573c.262-.18.68-.535.93-.79.25-.254.595-.679.767-.943.173-.264.426-.735.561-1.046a9.56 9.56 0 0 0 .407-1.186c.088-.34.193-.936.234-1.324.045-.424.06-1.125.037-1.762-.026-.703-.085-1.271-.176-1.697-.076-.353-.21-.857-.3-1.122a9.045 9.045 0 0 0-.411-.975c-.138-.272-.361-.661-.497-.865a8.152 8.152 0 0 0-.733-.875c-.267-.278-.689-.67-.938-.872-.25-.201-.686-.518-.97-.703a14.161 14.161 0 0 0-1.295-.707 17.555 17.555 0 0 0-1.572-.644c-.437-.15-.772-.294-.744-.32.029-.028.285-.138.57-.246.284-.109.708-.324.941-.48.233-.155.612-.483.841-.729.23-.246.54-.662.69-.925a7.85 7.85 0 0 0 .498-1.145c.123-.368.27-.928.327-1.245.057-.317.121-1.014.143-1.55.025-.583.01-1.264-.034-1.701a9.908 9.908 0 0 0-.208-1.234 6.2 6.2 0 0 0-.356-.957 5.213 5.213 0 0 0-.53-.827 4.836 4.836 0 0 0-.695-.666 5.623 5.623 0 0 0-.845-.503 7.577 7.577 0 0 0-.939-.345 10.582 10.582 0 0 0-1.16-.227c-.447-.06-1.272-.092-2.41-.093l-1.73-.001ZM159 142l.033-34.967 2.137-.015c1.176-.008 2.322.002 2.548.022l.411.036v14.293h18.741V107H188v35h-5.129v-18.653H164.129V142H159ZM212.497 107c.267.593 1.315 3.11 2.502 5.976l4.601 11.115 4.767 11.503c1.277 3.079 2.392 5.78 2.477 6.002L227 142l-2.68-.017-2.682-.017-2.057-4.969c-1.131-2.732-2.089-4.99-2.128-5.016-.038-.027-3.042-.041-6.674-.033-5.727.014-6.612.029-6.663.11-.033.053-.829 1.955-1.769 4.228-.94 2.272-1.858 4.48-2.04 4.906l-.333.774-1.002.018c-.792.014-.995 0-.97-.064l2.418-5.843a52610.568 52610.568 0 0 0 8.59-20.745c1.723-4.162 3.212-7.74 3.31-7.95l.177-.382Zm-7.533 22.996c11.413 0 11.683-.006 11.654-.115-.017-.063-1.11-2.728-2.43-5.92-1.32-3.194-2.575-6.228-2.79-6.742-.214-.515-.417-.97-.449-1.01-.032-.04-.11-.06-.175-.044-.084.022-.37.64-1.01 2.187a9188.28 9188.28 0 0 0-2.713 6.561c-1 2.423-1.88 4.558-1.953 4.744l-.134.339ZM53.837 142c-.755-.006-1.588-.036-1.851-.067-.264-.032-.78-.103-1.15-.158a19.266 19.266 0 0 1-1.452-.294c-.43-.106-1.11-.309-1.51-.45a15.946 15.946 0 0 1-1.249-.503c-.52-.246-.52-.246-1.599-2.201-.593-1.075-1.054-1.98-1.025-2.01.03-.031.28.12.556.334.276.214.817.6 1.204.857.386.257 1.104.67 1.596.919.491.248 1.167.554 1.5.68.334.126.86.304 1.17.395.309.091.84.224 1.18.295.339.072.948.163 1.352.204.445.045 1.19.059 1.885.035.788-.028 1.344-.082 1.768-.175.34-.074.872-.225 1.181-.336.31-.112.706-.277.882-.367a7.89 7.89 0 0 0 .702-.43c.21-.145.537-.412.726-.593.188-.181.468-.509.621-.728a6.3 6.3 0 0 0 .47-.815c.106-.23.257-.675.337-.989.115-.455.144-.748.144-1.446 0-.694-.03-.992-.142-1.438a8.061 8.061 0 0 0-.422-1.166 10.225 10.225 0 0 0-.61-1.103c-.182-.275-.545-.76-.806-1.078-.26-.317-.77-.864-1.13-1.214-.361-.35-1.059-.965-1.55-1.365-.492-.4-1.31-1.036-1.82-1.412-.51-.376-1.4-1.031-1.98-1.456a126.32 126.32 0 0 1-2.106-1.588 58.542 58.542 0 0 1-1.785-1.44 28.557 28.557 0 0 1-1.412-1.31c-.374-.375-.844-.889-1.045-1.14-.2-.25-.491-.65-.647-.888-.156-.238-.4-.67-.542-.96a9.783 9.783 0 0 1-.414-.995 8.802 8.802 0 0 1-.249-.97 12.01 12.01 0 0 1-.136-1.083 8.496 8.496 0 0 1 .032-1.283c.041-.387.146-.96.233-1.27a8.97 8.97 0 0 1 .434-1.154c.152-.323.453-.827.67-1.121.218-.294.575-.7.793-.902.218-.203.612-.523.875-.713.264-.19.77-.493 1.124-.674.354-.181.943-.436 1.309-.566.365-.13.951-.307 1.302-.393.352-.086.998-.217 1.437-.292a16.734 16.734 0 0 1 1.788-.174c.544-.02 1.363-.005 1.82.034.456.04 1.16.118 1.564.174.403.056 1.021.175 1.372.264.351.09.795.242.987.34.348.177.348.177 1.197 1.704.467.84.839 1.536.827 1.548-.012.012-.464-.206-1.005-.484a19.813 19.813 0 0 0-1.655-.757 16.67 16.67 0 0 0-1.38-.436 16.53 16.53 0 0 0-1.38-.286c-.41-.062-1.105-.102-1.786-.102-.73 0-1.32.036-1.715.105-.331.058-.832.178-1.113.268-.28.09-.755.29-1.053.448a6.868 6.868 0 0 0-.91.58c-.201.162-.494.46-.65.664a6.047 6.047 0 0 0-.448.679 4.42 4.42 0 0 0-.292.814c-.081.323-.127.72-.127 1.103 0 .384.046.78.128 1.107.07.28.255.754.41 1.053.157.299.412.713.567.919.156.206.597.683.98 1.06.382.376 1.025.935 1.428 1.242.403.307 1.38 1.009 2.17 1.56.79.55 1.997 1.396 2.681 1.879a91.43 91.43 0 0 1 2.33 1.708 52.353 52.353 0 0 1 1.725 1.375c.35.3.986.897 1.411 1.328.425.43.937.987 1.136 1.238.2.251.52.698.714.994.192.296.477.794.632 1.108.155.314.384.883.51 1.266.125.382.277.998.338 1.368.074.451.111 1.03.111 1.75 0 .855-.03 1.226-.144 1.812-.08.405-.204.918-.277 1.14-.073.223-.231.62-.35.886-.12.264-.38.73-.578 1.033a8.958 8.958 0 0 1-.878 1.089c-.285.296-.734.7-.997.9-.264.198-.735.51-1.048.692-.313.182-.787.424-1.054.538a19.93 19.93 0 0 1-1.027.397c-.298.105-.815.26-1.149.347-.334.086-.836.201-1.117.255-.281.054-.885.142-1.341.196-.529.063-1.329.096-2.203.09ZM92.612 142.999a29.935 29.935 0 0 1-1.716-.056c-.27-.024-.742-.082-1.048-.129a17.19 17.19 0 0 1-1.178-.232 37.99 37.99 0 0 1-1.015-.257 15.02 15.02 0 0 1-1.146-.407 19.363 19.363 0 0 1-1.505-.691 19.36 19.36 0 0 1-1.375-.802c-.343-.225-.873-.61-1.18-.854-.306-.245-.86-.745-1.232-1.111s-.916-.96-1.208-1.321c-.292-.361-.763-1.01-1.047-1.444a19.26 19.26 0 0 1-.956-1.672c-.24-.487-.561-1.2-.712-1.585-.15-.384-.379-1.062-.508-1.506a24.367 24.367 0 0 1-.395-1.598 27.938 27.938 0 0 1-.275-1.707c-.084-.663-.116-1.384-.116-2.592 0-1.206.032-1.928.115-2.59a27.26 27.26 0 0 1 .285-1.74c.093-.45.272-1.159.397-1.574a24.35 24.35 0 0 1 .515-1.493c.159-.406.495-1.147.748-1.647.254-.5.693-1.26.976-1.689.284-.429.717-1.03.962-1.337.246-.307.787-.9 1.203-1.317.417-.418.993-.947 1.281-1.176a22 22 0 0 1 1.27-.908c.41-.27 1.076-.66 1.482-.867a19.69 19.69 0 0 1 1.43-.646c.382-.15 1.06-.372 1.505-.494a22.028 22.028 0 0 1 1.622-.368c.61-.109 1.173-.152 2.283-.178 1.136-.026 1.676-.009 2.358.075.486.06 1.222.184 1.636.277.415.093 1.103.286 1.53.429.426.143 1.069.39 1.427.55.359.159.923.441 1.254.627.331.186.882.531 1.224.767.342.236.843.607 1.113.825a18.73 18.73 0 0 1 2.368 2.404c.274.343.74.992 1.034 1.443.294.451.739 1.233.988 1.739.25.505.572 1.235.717 1.622.146.388.368 1.065.494 1.505.127.44.303 1.156.392 1.591.089.436.213 1.25.276 1.808.07.618.115 1.505.115 2.263 0 .686-.038 1.655-.083 2.154a24.94 24.94 0 0 1-.248 1.804c-.09.494-.268 1.281-.397 1.75a22.484 22.484 0 0 1-.53 1.64 22.345 22.345 0 0 1-.652 1.521c-.195.404-.538 1.04-.763 1.414a20.56 20.56 0 0 1-.977 1.44 19.682 19.682 0 0 1-1.24 1.463 19.52 19.52 0 0 1-1.295 1.228c-.343.288-.949.74-1.345 1.005-.396.264-1.059.657-1.473.873-.414.216-1.105.53-1.536.7-.43.169-.946.337-1.146.373-.2.037-.451.107-.559.158-.108.05-.476.15-.819.22-.342.07-.954.173-1.36.229-.486.067-1.159.098-1.965.091Zm-.199-1.965c.529.004 1.19-.024 1.47-.063.278-.039.78-.14 1.114-.225.334-.085.933-.292 1.33-.46.428-.18 1.04-.517 1.494-.82a12.627 12.627 0 0 0 1.34-1.046 13.63 13.63 0 0 0 1.085-1.175c.283-.352.686-.919.897-1.259.21-.34.568-1.002.796-1.471.227-.47.546-1.23.708-1.69.163-.462.382-1.185.488-1.608.106-.423.255-1.094.33-1.491.075-.397.18-1.047.234-1.443.053-.399.115-1.572.138-2.622.034-1.517.02-2.138-.067-3.083-.06-.651-.168-1.523-.239-1.938a29.28 29.28 0 0 0-.364-1.705c-.13-.524-.368-1.32-.53-1.772a21.2 21.2 0 0 0-.738-1.738 17.227 17.227 0 0 0-.9-1.607 17.21 17.21 0 0 0-.97-1.304 12.095 12.095 0 0 0-1.072-1.104c-.307-.268-.82-.663-1.14-.878-.319-.214-.827-.507-1.127-.65-.301-.145-.807-.35-1.125-.455a11.277 11.277 0 0 0-1.199-.312c-.465-.089-.936-.119-1.866-.119s-1.401.03-1.866.12c-.342.065-.882.205-1.2.31-.317.107-.823.311-1.124.455-.3.144-.808.437-1.128.651-.32.215-.832.61-1.139.878-.307.27-.79.766-1.073 1.104-.283.338-.719.925-.968 1.304-.25.379-.616 1.013-.815 1.409-.198.396-.49 1.05-.648 1.455a21.425 21.425 0 0 0-.519 1.543 26.648 26.648 0 0 0-.422 1.76 31.39 31.39 0 0 0-.308 1.902c-.09.732-.117 1.427-.117 3.017 0 1.194.035 2.413.083 2.888.045.451.143 1.175.216 1.607.073.432.22 1.14.328 1.573.107.433.301 1.112.432 1.509.13.397.33.943.445 1.214.114.27.363.802.553 1.18.19.38.53.97.753 1.312.224.343.628.89.898 1.214.27.325.725.807 1.01 1.073.286.265.866.712 1.288.994.45.3 1.068.638 1.493.818.398.168 1.006.377 1.35.465.343.087.806.185 1.027.217.222.032.836.061 1.364.066Z"></path>
    </g>
    <g fill="#D5B46A" fill-rule="nonzero" stroke="#D5B46A" stroke-width=".5">
      <path d="M108.003 166.41v-8h3.517c.703 0 1.239.073 1.607.218.373.142.667.397.887.764.22.364.33.755.33 1.174V160.587c0 .573-.182 1.05-.546 1.436-.361.389-.922.638-1.683.747.276.135.487.268.627.399.293.276.581.63.866 1.058l.006.006 1.38 2.177h-1.32l-1.05-1.664c-.31-.491-.562-.859-.753-1.103a2.417 2.417 0 0 0-.535-.529l-.006-.005a1.638 1.638 0 0 0-.476-.213l-.238-.027-.346-.011h-1.218v3.552h-1.05Zm1.05-4.47h2.256c.472 0 .845-.048 1.12-.146a1.18 1.18 0 0 0 .622-.48c.14-.219.21-.454.21-.705v-.016c0-.375-.134-.684-.405-.928l-.005-.005c-.274-.244-.702-.366-1.283-.366H109.053v2.647ZM118.58 166.41v-8h5.736v.944h-4.686v2.45h4.388V162.743h-4.388v2.723h4.87v.944h-5.92ZM127.649 166.41l3.046-8h1.131l3.247 8h-1.196l-.926-2.423h-3.316l-.872 2.423h-1.114Zm2.289-3.285h2.689l-.828-2.216a25.607 25.607 0 0 1-.563-1.658 9.277 9.277 0 0 1-.422 1.517l-.005.01-.871 2.347ZM138.438 166.41v-8h1.05v7.056h3.907v.944zM148.233 166.41v-7.056h-2.614v-.944h6.288v.944h-2.625v7.056zM157.787 166.41v-3.389l-3.057-4.61h1.277l1.564 2.411c.274.43.543.88.806 1.354.242-.423.529-.892.86-1.408l.006-.006 1.537-2.352h1.223l-3.166 4.611v3.39h-1.05Z"></path>
    </g>
  </g>
</svg>
